<?xml version="1.0" encoding="utf-8"?>
<!-- Generator: Adobe Illustrator 26.3.1, SVG Export Plug-In . SVG Version: 6.00 Build 0)  -->
<svg version="1.1" id="Layer_1" xmlns="http://www.w3.org/2000/svg" xmlns:xlink="http://www.w3.org/1999/xlink" x="0px" y="0px"
	 viewBox="0 0 590 42.5" style="enable-background:new 0 0 590 42.5;" xml:space="preserve">
<style type="text/css">
	.st0{fill:#FFFFFF;}
</style>
<g>
	<path class="st0" d="M138.83,1.27h14.9c1.73,0,3.47,0.12,5.22,0.37c1.75,0.25,3.32,0.73,4.71,1.47c1.39,0.73,2.52,1.76,3.39,3.08
		c0.87,1.32,1.3,3.07,1.3,5.25c0,2.26-0.63,4.13-1.89,5.62c-1.26,1.49-2.93,2.55-5,3.19v0.11c1.32,0.19,2.51,0.56,3.58,1.1
		c1.07,0.55,1.99,1.24,2.77,2.09c0.77,0.85,1.36,1.83,1.78,2.96c0.41,1.13,0.62,2.33,0.62,3.61c0,2.11-0.45,3.87-1.35,5.28
		c-0.9,1.41-2.07,2.55-3.5,3.42c-1.43,0.87-3.04,1.49-4.83,1.86c-1.79,0.38-3.57,0.56-5.33,0.56h-16.37V1.27z M147.63,17.24h6.38
		c0.68,0,1.35-0.07,2-0.23c0.66-0.15,1.25-0.4,1.78-0.73c0.53-0.34,0.95-0.79,1.27-1.35c0.32-0.56,0.48-1.24,0.48-2.03
		c0-0.83-0.18-1.51-0.54-2.06c-0.36-0.55-0.82-0.97-1.38-1.27c-0.56-0.3-1.2-0.52-1.92-0.65c-0.72-0.13-1.41-0.2-2.09-0.2h-5.98
		V17.24z M147.63,33.78h7.9c0.68,0,1.36-0.08,2.06-0.23c0.7-0.15,1.33-0.41,1.89-0.79c0.56-0.38,1.02-0.87,1.38-1.47
		c0.36-0.6,0.54-1.34,0.54-2.2c0-0.94-0.24-1.7-0.71-2.29c-0.47-0.58-1.06-1.02-1.78-1.33c-0.72-0.3-1.49-0.51-2.31-0.62
		c-0.83-0.11-1.6-0.17-2.31-0.17h-6.66V33.78z"/>
	<path class="st0" d="M191.38,1.27h7.28l17.39,39.97h-9.94l-3.44-8.47h-15.52l-3.33,8.47h-9.71L191.38,1.27z M194.77,12.9
		l-4.85,12.42h9.77L194.77,12.9z"/>
	<path class="st0" d="M254.5,35.31c-1.69,2.37-3.84,4.12-6.44,5.25c-2.6,1.13-5.27,1.69-8.02,1.69c-3.12,0-6-0.49-8.64-1.47
		c-2.63-0.98-4.91-2.38-6.83-4.21c-1.92-1.83-3.42-4.04-4.49-6.63c-1.07-2.6-1.61-5.5-1.61-8.69c0-3.2,0.54-6.1,1.61-8.69
		c1.07-2.6,2.57-4.81,4.49-6.63c1.92-1.83,4.2-3.23,6.83-4.21c2.63-0.98,5.51-1.47,8.64-1.47c1.13,0,2.31,0.1,3.53,0.31
		c1.22,0.21,2.43,0.54,3.61,0.99c1.19,0.45,2.32,1.05,3.42,1.81c1.09,0.75,2.07,1.67,2.94,2.77l-6.77,5.53
		c-0.87-1.05-1.93-1.86-3.19-2.43c-1.26-0.56-2.72-0.85-4.37-0.85c-1.66,0-3.19,0.32-4.6,0.96c-1.41,0.64-2.63,1.53-3.67,2.68
		c-1.04,1.15-1.84,2.51-2.43,4.09c-0.58,1.58-0.88,3.29-0.88,5.14c0,1.88,0.29,3.6,0.88,5.17c0.58,1.56,1.38,2.92,2.4,4.06
		c1.02,1.15,2.21,2.04,3.58,2.68c1.37,0.64,2.85,0.96,4.43,0.96c1.81,0,3.41-0.38,4.8-1.13c1.39-0.75,2.54-1.81,3.44-3.16
		L254.5,35.31z"/>
	<path class="st0" d="M262.46,1.27h8.81v16.6l15.52-16.6h11.52l-17.78,18.57l19.31,21.4h-12.31l-16.26-18.97v18.97h-8.81V1.27z"/>
	<path class="st0" d="M308.69,1.27h11.63c4.06,0,7.27,0.88,9.63,2.65c2.35,1.77,3.53,4.44,3.53,8.02c0,3.58-1.18,6.26-3.53,8.04
		c-2.35,1.79-5.56,2.68-9.63,2.68h-7.56v18.57h-4.06V1.27z M312.75,18.94h6.55c1.81,0,3.34-0.19,4.6-0.56
		c1.26-0.38,2.27-0.88,3.02-1.5c0.75-0.62,1.3-1.35,1.64-2.2c0.34-0.85,0.51-1.76,0.51-2.74c0-0.94-0.17-1.83-0.51-2.68
		c-0.34-0.85-0.89-1.59-1.64-2.23c-0.75-0.64-1.76-1.14-3.02-1.5c-1.26-0.36-2.79-0.54-4.6-0.54h-6.55V18.94z"/>
	<path class="st0" d="M337.59,41.23h-4.74l17.39-39.97h3.95l17.39,39.97h-4.74l-4.4-10.5H342L337.59,41.23z M343.52,27.01h17.33
		l-8.64-21L343.52,27.01z"/>
	<path class="st0" d="M411.15,34.91c-0.68,1.02-1.52,1.98-2.51,2.88c-1,0.9-2.14,1.68-3.41,2.34c-1.28,0.66-2.66,1.18-4.15,1.55
		c-1.49,0.38-3.06,0.56-4.71,0.56c-2.97,0-5.73-0.53-8.27-1.58c-2.54-1.05-4.74-2.51-6.6-4.37c-1.86-1.86-3.32-4.07-4.38-6.63
		c-1.05-2.56-1.58-5.36-1.58-8.41s0.53-5.85,1.58-8.41c1.05-2.56,2.51-4.77,4.38-6.63c1.86-1.86,4.06-3.32,6.6-4.37
		c2.54-1.05,5.3-1.58,8.27-1.58c2.48,0,4.97,0.49,7.45,1.47c2.48,0.98,4.61,2.6,6.38,4.85l-3.56,2.65
		c-0.41-0.64-0.98-1.28-1.69-1.92c-0.72-0.64-1.53-1.2-2.46-1.69c-0.92-0.49-1.91-0.88-2.96-1.19c-1.05-0.3-2.11-0.45-3.16-0.45
		c-2.56,0-4.86,0.47-6.89,1.41c-2.03,0.94-3.75,2.2-5.17,3.78c-1.41,1.58-2.49,3.42-3.25,5.5c-0.75,2.09-1.13,4.28-1.13,6.58
		c0,2.3,0.38,4.49,1.13,6.58c0.75,2.09,1.83,3.92,3.25,5.5c1.41,1.58,3.13,2.84,5.17,3.78c2.03,0.94,4.33,1.41,6.89,1.41
		c1.05,0,2.1-0.09,3.13-0.28c1.03-0.19,2.05-0.51,3.05-0.96c1-0.45,1.94-1.06,2.82-1.83c0.88-0.77,1.7-1.74,2.46-2.91L411.15,34.91z
		"/>
	<path class="st0" d="M424.87,18.6h0.06h0.51l18.8-17.33h5.81l-20.15,18.12l21.28,21.85h-5.98l-19.65-20.6h-0.62h-0.06v20.6h-4.06
		V1.27h4.06V18.6z"/>
</g>
</svg>
