<?xml version="1.0" encoding="utf-8"?>
<!-- Generator: Adobe Illustrator 26.5.0, SVG Export Plug-In . SVG Version: 6.00 Build 0)  -->
<svg version="1.1" id="Layer_1" xmlns="http://www.w3.org/2000/svg" xmlns:xlink="http://www.w3.org/1999/xlink" x="0px" y="0px"
	 viewBox="0 0 219.5 105.9" style="enable-background:new 0 0 219.5 105.9;" xml:space="preserve">
<style type="text/css">
	.st0{fill:url(#SVGID_1_);}
	.st1{fill:#F9E2A6;}
	.st2{fill:url(#SVGID_00000003104983543403608170000012287688419213140122_);}
	.st3{fill:#FFFFFF;}
	.st4{fill:#494849;}
	.st5{fill:#B7B7B7;}
	.st6{fill:none;}
	.st7{font-family:'Avenir-Roman';}
	.st8{font-size:37px;}
</style>
<g>
	<polygon class="st4" points="190.7,68.4 162,105.9 136.4,105.9 165.2,68.4 136.4,30.9 162,30.9 190.7,68.4 	"/>
	<polygon class="st4" points="194.9,63 219.5,30.9 193.9,30.9 182.1,46.4 194.9,63 	"/>
	<polygon class="st4" points="182.1,90.5 193.9,105.9 219.5,105.9 194.9,73.8 182.1,90.5 	"/>
	<path class="st4" d="M62.4,63.7c0.2,1.8,0.3,3.5,0.3,4.7c0,4.5-0.8,14.9-8.3,14.9c-3.4,0-5.4-2.2-6.6-5L62.4,63.7L62.4,63.7z
		 M54.4,53.6c3.5,0,5.5,2.3,6.7,5.2L46.4,73.4c-0.3-1.9-0.3-3.6-0.3-4.9C46.1,64,46.9,53.6,54.4,53.6L54.4,53.6z M73.9,52.2
		l-3.1-3.1l-3.9,3.9c-3.4-2.7-7.7-4.3-12.5-4.3c-11.2,0-19.9,8.7-19.9,19.8c0,4.8,1.6,9.1,4.4,12.5L35,84.8l3.1,3.1l3.8-3.8
		c3.4,2.6,7.6,4.1,12.4,4.1c11.2,0,19.9-8.7,19.9-19.8c0-4.7-1.6-9-4.3-12.4L73.9,52.2L73.9,52.2z M103,67.6c0,7-2.8,14.4-10.6,14.4
		h-3.8V54.8H92C99.6,54.8,103,61.2,103,67.6L103,67.6z M94.5,49.7H77.8v37.5h18.3c11.2,0,18.5-7.1,18.5-18.1
		C114.6,57.8,106.1,49.7,94.5,49.7L94.5,49.7z M142.6,81.2v6h-24.9V49.7h25v6h-13.7v9.3h12.3v6h-12.3v10.3H142.6L142.6,81.2z
		 M11.3,55.1h3.3c3.6,0,6.1,2.5,6.1,6.2c0,5.3-3,6.3-8.2,6.3h-1.2V55.1L11.3,55.1z M32.3,61.1c0-7.1-7-11.4-13.5-11.4H0v37.5h11.3
		V69.1L20,86.9l0.1,0.3h12.8L24,71.4C29.2,69.9,32.3,66,32.3,61.1L32.3,61.1z"/>
</g>
<rect y="0.6" class="st6" width="136.7" height="38.9"/>
<text transform="matrix(1 0 0 1 5.090023e-05 28.5599)" class="st4 st7 st8">go to</text>
</svg>
