<?xml version="1.0" encoding="UTF-8"?><svg id="Layer_1" xmlns="http://www.w3.org/2000/svg" viewBox="0 0 590 42"><defs><style>.cls-1{fill:#ad9970;}</style></defs><g><path class="cls-1" d="M394.52,25.69c0,2.15-.25,4.2-.73,6.15-.49,1.96-1.31,3.69-2.46,5.19-1.15,1.51-2.65,2.71-4.52,3.61s-4.15,1.35-6.86,1.35-5-.45-6.86-1.35-3.37-2.11-4.52-3.61c-1.15-1.5-1.97-3.24-2.46-5.19-.49-1.96-.73-4.01-.73-6.15V1.02h3.73V24.73c0,1.43,.13,2.95,.4,4.57,.26,1.62,.78,3.12,1.55,4.52,.77,1.39,1.86,2.54,3.27,3.44s3.28,1.35,5.62,1.35,4.21-.45,5.62-1.35,2.5-2.05,3.27-3.44c.77-1.39,1.29-2.9,1.55-4.52,.26-1.62,.4-3.14,.4-4.57V1.02h3.73V25.69Z"/><path class="cls-1" d="M405.08,33.59c.98,1.69,2.25,2.95,3.81,3.78,1.56,.83,3.34,1.24,5.33,1.24,1.24,0,2.41-.19,3.5-.56,1.09-.38,2.04-.9,2.85-1.58,.81-.68,1.45-1.5,1.92-2.46,.47-.96,.71-2.04,.71-3.25,0-1.39-.29-2.54-.87-3.44-.58-.9-1.36-1.65-2.34-2.23-.98-.58-2.08-1.08-3.3-1.5-1.22-.41-2.48-.83-3.78-1.24-1.3-.41-2.56-.88-3.78-1.41-1.22-.53-2.32-1.21-3.3-2.06-.98-.85-1.76-1.91-2.34-3.19-.58-1.28-.87-2.86-.87-4.74,0-1.77,.35-3.34,1.04-4.71,.7-1.37,1.64-2.52,2.82-3.44,1.19-.92,2.55-1.62,4.09-2.09C412.1,.24,413.71,0,415.41,0c2.18,0,4.21,.39,6.07,1.16,1.86,.77,3.47,2.06,4.83,3.87l-3.22,2.31c-.94-1.32-2.04-2.3-3.3-2.96-1.26-.66-2.76-.99-4.49-.99-1.2,0-2.35,.16-3.44,.48-1.09,.32-2.04,.79-2.85,1.41-.81,.62-1.46,1.4-1.95,2.34-.49,.94-.73,2.05-.73,3.33,0,2,.51,3.53,1.52,4.6,1.02,1.07,2.29,1.92,3.81,2.54,1.52,.62,3.18,1.17,4.97,1.64,1.79,.47,3.44,1.1,4.97,1.89,1.52,.79,2.79,1.89,3.81,3.3,1.02,1.41,1.52,3.36,1.52,5.84,0,1.81-.34,3.41-1.02,4.8-.68,1.39-1.59,2.57-2.74,3.53-1.15,.96-2.48,1.68-3.98,2.17-1.51,.49-3.07,.73-4.69,.73-2.63,0-5.06-.46-7.28-1.38-2.22-.92-4.12-2.47-5.7-4.66l3.56-2.37Z"/><path class="cls-1" d="M434.66,1.02h11.52c1.5,0,3.03,.12,4.57,.37,1.54,.25,2.93,.75,4.15,1.52,1.22,.77,2.22,1.84,2.99,3.22,.77,1.37,1.16,3.19,1.16,5.45,0,2.03-.6,3.8-1.81,5.31-1.2,1.51-2.99,2.5-5.36,2.99v.11c1.32,.11,2.52,.42,3.61,.93,1.09,.51,2.03,1.19,2.82,2.03,.79,.85,1.4,1.85,1.83,3.02,.43,1.17,.65,2.45,.65,3.84,0,2.3-.44,4.17-1.33,5.62-.88,1.45-2,2.59-3.33,3.42-1.34,.83-2.79,1.39-4.35,1.69-1.56,.3-3.02,.45-4.37,.45h-12.76V1.02Zm3.73,17.27h7.73c1.92,0,3.48-.23,4.69-.71,1.2-.47,2.15-1.04,2.82-1.72s1.13-1.4,1.35-2.17c.23-.77,.34-1.48,.34-2.12,0-1.39-.24-2.55-.71-3.47-.47-.92-1.1-1.66-1.89-2.2-.79-.55-1.71-.93-2.77-1.16-1.05-.23-2.16-.34-3.33-.34h-8.24v13.89Zm0,19.31h8.52c2.18,0,3.94-.26,5.28-.79,1.34-.53,2.36-1.19,3.08-1.98,.71-.79,1.19-1.63,1.44-2.51,.24-.88,.37-1.68,.37-2.4,0-1.47-.28-2.73-.85-3.78-.56-1.05-1.3-1.91-2.2-2.57-.9-.66-1.93-1.14-3.08-1.44-1.15-.3-2.31-.45-3.47-.45h-9.09v15.92Z"/></g><g><path d="M129.2,1.02h14.85c2.07,0,4.03,.19,5.87,.56,1.84,.38,3.45,1.03,4.83,1.95,1.37,.92,2.46,2.16,3.27,3.73,.81,1.56,1.21,3.53,1.21,5.9s-.38,4.29-1.13,5.87c-.75,1.58-1.79,2.84-3.1,3.78-1.32,.94-2.88,1.61-4.69,2-1.81,.4-3.76,.59-5.87,.59h-6.44v15.58h-8.81V1.02Zm8.81,16.94h5.87c.79,0,1.55-.07,2.29-.23,.73-.15,1.39-.4,1.98-.76,.58-.36,1.05-.85,1.41-1.47,.36-.62,.54-1.4,.54-2.34,0-1.02-.24-1.83-.71-2.46-.47-.62-1.07-1.1-1.81-1.44-.73-.34-1.55-.55-2.46-.65-.9-.09-1.77-.14-2.6-.14h-4.52v9.48Z"/><path d="M162.51,21c0-3.2,.54-6.1,1.61-8.69,1.07-2.6,2.57-4.81,4.49-6.63,1.92-1.82,4.2-3.23,6.83-4.21,2.63-.98,5.51-1.47,8.64-1.47s6,.49,8.64,1.47c2.63,.98,4.91,2.38,6.83,4.21,1.92,1.83,3.42,4.04,4.49,6.63,1.07,2.6,1.61,5.5,1.61,8.69s-.54,6.1-1.61,8.69c-1.07,2.6-2.57,4.81-4.49,6.63-1.92,1.83-4.2,3.23-6.83,4.21-2.63,.98-5.51,1.47-8.64,1.47s-6-.49-8.64-1.47c-2.63-.98-4.91-2.38-6.83-4.21-1.92-1.82-3.42-4.04-4.49-6.63-1.07-2.6-1.61-5.49-1.61-8.69Zm9.15,0c0,1.88,.29,3.6,.87,5.17,.58,1.56,1.42,2.92,2.51,4.06,1.09,1.15,2.4,2.04,3.92,2.68,1.52,.64,3.23,.96,5.11,.96s3.58-.32,5.11-.96c1.52-.64,2.83-1.53,3.92-2.68,1.09-1.15,1.93-2.5,2.51-4.06,.58-1.56,.87-3.28,.87-5.17s-.29-3.56-.87-5.14c-.58-1.58-1.42-2.94-2.51-4.09-1.09-1.15-2.4-2.04-3.92-2.68-1.52-.64-3.23-.96-5.11-.96s-3.58,.32-5.11,.96c-1.52,.64-2.83,1.53-3.92,2.68-1.09,1.15-1.93,2.51-2.51,4.09-.58,1.58-.87,3.29-.87,5.14Z"/><path d="M211.51,1.02h13.21c3.2,0,6.24,.36,9.12,1.07,2.88,.72,5.39,1.87,7.54,3.47,2.15,1.6,3.85,3.68,5.11,6.24,1.26,2.56,1.89,5.66,1.89,9.31,0,3.24-.61,6.09-1.83,8.55-1.22,2.47-2.87,4.54-4.94,6.21-2.07,1.68-4.46,2.95-7.17,3.81-2.71,.87-5.55,1.3-8.52,1.3h-14.4V1.02Zm8.81,31.84h4.57c2.03,0,3.92-.21,5.67-.62,1.75-.41,3.26-1.1,4.54-2.06,1.28-.96,2.29-2.22,3.02-3.78,.73-1.56,1.1-3.47,1.1-5.73,0-1.96-.37-3.66-1.1-5.11-.73-1.45-1.72-2.64-2.96-3.58-1.24-.94-2.7-1.65-4.38-2.12-1.68-.47-3.43-.71-5.28-.71h-5.19v23.71Z"/><path d="M254.24,1.02h13.32l9.2,26.08h.11l9.26-26.08h13.27V40.98h-8.81V10.33h-.11l-10.5,30.65h-6.72l-10.1-30.65h-.11v30.65h-8.81V1.02Z"/><path d="M307.31,1.02h8.81V40.98h-8.81V1.02Z"/><path d="M350.15,11.4c-.87-1.05-1.93-1.86-3.19-2.43-1.26-.56-2.72-.85-4.37-.85s-3.19,.32-4.6,.96c-1.41,.64-2.63,1.53-3.67,2.68-1.04,1.15-1.84,2.51-2.43,4.09-.58,1.58-.87,3.29-.87,5.14s.29,3.6,.87,5.17c.58,1.56,1.38,2.92,2.4,4.06,1.02,1.15,2.21,2.04,3.58,2.68,1.37,.64,2.85,.96,4.43,.96,1.81,0,3.41-.38,4.8-1.13,1.39-.75,2.54-1.81,3.44-3.16l7.34,5.48c-1.69,2.37-3.84,4.12-6.44,5.25-2.6,1.13-5.27,1.69-8.02,1.69-3.12,0-6-.49-8.64-1.47-2.63-.98-4.91-2.38-6.83-4.21-1.92-1.82-3.42-4.04-4.49-6.63-1.07-2.6-1.61-5.49-1.61-8.69s.54-6.1,1.61-8.69c1.07-2.6,2.57-4.81,4.49-6.63,1.92-1.82,4.2-3.23,6.83-4.21,2.63-.98,5.51-1.47,8.64-1.47,1.13,0,2.3,.1,3.53,.31,1.22,.21,2.43,.54,3.61,.99s2.32,1.05,3.42,1.81c1.09,.75,2.07,1.67,2.94,2.77l-6.77,5.53Z"/></g></svg>