<?xml version="1.0" encoding="UTF-8"?><svg id="Layer_1" xmlns="http://www.w3.org/2000/svg" viewBox="0 0 590 42"><defs><style>.cls-1{fill:#fff;}.cls-2{fill:#ab976f;}</style></defs><path class="cls-1" d="M84.13,13.4c0-7.41-7.41-12.04-14.26-12.04h-19.88V40.98h11.92V21.74l9.17,18.88,.11,.35h13.55l-9.41-16.68c5.46-1.64,8.81-5.79,8.81-10.88Zm-22.23-6.37h3.47c3.43-.16,6.33,2.5,6.49,5.93,0,.19,0,.38,0,.56,0,5.55-3.13,6.59-8.69,6.59h-1.27V7.04Z"/><polygon class="cls-1" points="186 34.47 186 23.59 198.97 23.59 198.97 17.22 186 17.22 186 7.49 199.66 7.49 199.66 1.13 174.08 1.13 174.08 40.71 200.35 40.71 200.35 34.47 186 34.47"/><path class="cls-1" d="M149.68,1.13h-17.51V40.71h19.36c11.81,0,19.45-7.52,19.45-19.1-.02-11.81-8.93-20.49-21.29-20.49Zm8.91,18.99c0,7.29-2.89,15.16-11.11,15.16h-3.91V6.57h3.59c7.94,0,11.41,6.84,11.41,13.55h.03Z"/><path class="cls-1" d="M128.01,4.03l-3.36-3.36-4.07,4.07C116.8,1.83,112.16,.24,107.4,.23c-11.54-.08-20.97,9.21-21.05,20.75-.03,4.82,1.6,9.51,4.62,13.26l-4.07,4.07,3.35,3.36,4.07-4.07c3.75,2.88,8.35,4.43,13.08,4.39,11.45,.19,20.88-8.94,21.06-20.39,0-.15,0-.29,0-.44,0-4.74-1.59-9.35-4.51-13.09l4.05-4.04Zm-20.61,1.39c3.71,0,5.79,2.43,7.06,5.44l-15.39,15.4c-.2-1.73-.31-3.47-.32-5.22-.14-4.62,.78-15.63,8.65-15.63Zm8.33,10.77c.21,1.65,.32,3.32,.34,4.98,0,4.74-.81,15.63-8.69,15.63-3.59,0-5.79-2.32-6.95-5.22l15.3-15.39Z"/><path class="cls-1" d="M242.61,34.59c-1.69,2.4-3.97,4.32-6.63,5.56-2.56,1.14-5.34,1.72-8.15,1.69-2.86,.03-5.7-.49-8.35-1.55-2.45-.99-4.66-2.47-6.5-4.37-1.83-1.9-3.26-4.14-4.21-6.6-1.03-2.68-1.55-5.53-1.52-8.4-.03-2.86,.48-5.7,1.52-8.37,.95-2.46,2.39-4.71,4.22-6.61,1.84-1.88,4.05-3.37,6.49-4.36C222.12,.5,224.96-.03,227.82,0c2.59-.02,5.16,.47,7.57,1.44,2.43,1.03,4.54,2.69,6.11,4.81l-3.06,2.53c-1.16-1.79-2.8-3.2-4.75-4.07-1.86-.85-3.89-1.29-5.94-1.29-2.4-.04-4.78,.42-7,1.34-1.99,.85-3.77,2.1-5.26,3.67-1.48,1.61-2.63,3.5-3.37,5.56-.8,2.22-1.2,4.56-1.18,6.92-.02,2.36,.38,4.7,1.18,6.92,.74,2.06,1.89,3.96,3.37,5.57,1.5,1.59,3.31,2.86,5.32,3.71,2.22,.93,4.6,1.39,7,1.35,2.2-.02,4.36-.53,6.33-1.51,1.06-.52,2.05-1.16,2.95-1.9,.96-.8,1.8-1.74,2.48-2.79l3.04,2.34Z"/><path class="cls-1" d="M261.62,1.01h3.82l16.76,39.81h-4.16l-4.33-10.56h-21.09l-4.5,10.56h-3.88L261.62,1.01Zm1.74,4.07l-9.28,21.81h18.28l-9-21.81Z"/><path class="cls-1" d="M289,33.4c.88,1.59,2.2,2.9,3.8,3.77,1.64,.85,3.46,1.28,5.31,1.24,1.19,0,2.36-.19,3.48-.57,1.04-.34,2-.87,2.84-1.57,.8-.67,1.45-1.51,1.92-2.44,.48-1.01,.72-2.12,.7-3.24,.05-1.2-.26-2.39-.88-3.42-.59-.92-1.39-1.68-2.33-2.23-1.04-.61-2.14-1.11-3.29-1.49-1.21-.41-2.48-.83-3.76-1.23s-2.56-.89-3.77-1.41c-1.2-.5-2.31-1.19-3.29-2.04-1-.88-1.8-1.96-2.33-3.18-.63-1.49-.92-3.1-.88-4.72-.04-1.62,.31-3.23,1.02-4.7,.67-1.34,1.63-2.52,2.81-3.43,1.22-.92,2.6-1.61,4.07-2.04,1.57-.47,3.19-.71,4.83-.7,2.07-.02,4.13,.37,6.05,1.15,1.92,.82,3.59,2.15,4.81,3.85l-3.21,2.3c-.83-1.25-1.95-2.29-3.26-3.03-1.38-.7-2.92-1.05-4.47-1.02-1.16,0-2.32,.16-3.43,.48-1.03,.3-1.99,.8-2.83,1.46-.81,.62-1.48,1.42-1.95,2.33-.51,1.03-.76,2.17-.73,3.32-.11,1.67,.44,3.32,1.53,4.58,1.07,1.1,2.36,1.96,3.79,2.53,1.61,.65,3.27,1.2,4.95,1.63,1.71,.44,3.37,1.08,4.95,1.88,1.51,.78,2.81,1.91,3.79,3.29,1.11,1.73,1.64,3.77,1.52,5.82,.03,1.65-.32,3.28-1.02,4.78-.64,1.37-1.56,2.58-2.72,3.56-1.17,.97-2.51,1.71-3.96,2.17-1.51,.49-3.08,.74-4.67,.73-2.48,.03-4.95-.44-7.25-1.38-2.29-.99-4.26-2.6-5.68-4.65l3.55-2.4Z"/><path class="cls-1" d="M328.02,4.35h-13.61V1.01h30.93v3.33h-13.61V40.83h-3.71V4.35Z"/><path class="cls-1" d="M351.47,1.01h24.36v3.33h-20.65v14.26h19.36v3.38h-19.36v15.46h21.54v3.37h-25.24V1.01Z"/><path class="cls-1" d="M382.29,1.01h10.46c.52,0,1.23,0,2.13,.06,.98,.04,1.96,.15,2.92,.34,1.09,.2,2.17,.5,3.21,.9,1.08,.41,2.07,1.02,2.92,1.8,.9,.84,1.63,1.85,2.14,2.97,.6,1.38,.89,2.88,.85,4.39,.05,1.63-.3,3.26-1.02,4.73-.6,1.17-1.44,2.2-2.48,3.01-.99,.76-2.1,1.34-3.29,1.71-1.12,.36-2.26,.62-3.42,.79l11.61,19.11h-4.22l-11.21-18.89h-6.89v18.89h-3.71l-.02-39.81Zm3.73,17.59h7.87c1.61,.06,3.22-.19,4.75-.72,1.07-.39,2.04-1,2.84-1.8,.63-.65,1.11-1.44,1.38-2.3,.23-.73,.35-1.49,.37-2.25-.01-.76-.14-1.52-.37-2.25-.27-.87-.74-1.65-1.38-2.3-.81-.8-1.78-1.41-2.84-1.8-1.52-.57-3.14-.85-4.77-.83h-7.85v14.26Z"/><g><path class="cls-2" d="M418.6,1.02h12.31c3.44,0,6.37,.42,8.77,1.26,2.4,.84,4.39,1.92,5.98,3.23,1.59,1.31,2.85,2.77,3.77,4.36,.91,1.59,1.59,3.12,2.02,4.58s.7,2.78,.81,3.96c.11,1.18,.17,2.02,.17,2.5s-.05,1.32-.17,2.5c-.11,1.18-.38,2.5-.81,3.96s-1.11,2.99-2.02,4.58c-.92,1.59-2.18,3.05-3.77,4.36-1.59,1.31-3.59,2.39-5.98,3.23-2.4,.84-5.32,1.26-8.77,1.26h-12.31V1.02Zm3.71,36.42h7.64c2.62,0,5.08-.33,7.36-.98,2.29-.65,4.27-1.66,5.96-3.01,1.69-1.35,3.01-3.06,3.99-5.14s1.46-4.54,1.46-7.39-.49-5.31-1.46-7.39c-.97-2.08-2.3-3.79-3.99-5.14-1.69-1.35-3.67-2.35-5.96-3.01-2.28-.66-4.74-.98-7.36-.98h-7.64V37.45Z"/><path class="cls-2" d="M490.16,25.59c0,2.14-.25,4.18-.73,6.13-.49,1.95-1.3,3.67-2.45,5.17-1.14,1.5-2.64,2.7-4.5,3.6-1.85,.9-4.13,1.35-6.83,1.35s-4.97-.45-6.83-1.35c-1.85-.9-3.35-2.1-4.5-3.6s-1.96-3.22-2.44-5.17c-.49-1.95-.73-3.99-.73-6.13V1.02h3.71V24.63c0,1.42,.13,2.94,.39,4.55,.26,1.61,.78,3.11,1.55,4.5s1.85,2.53,3.26,3.43c1.4,.9,3.27,1.35,5.59,1.35s4.19-.45,5.59-1.35,2.49-2.04,3.26-3.43c.76-1.39,1.28-2.89,1.55-4.5,.26-1.61,.39-3.13,.39-4.55V1.02h3.71V25.59Z"/><path class="cls-2" d="M498.87,20.92c0-3.04,.51-5.83,1.52-8.38,1.01-2.55,2.42-4.75,4.21-6.6,1.8-1.85,3.97-3.31,6.5-4.36S516.41,.01,519.44,.01s5.82,.52,8.35,1.57,4.69,2.5,6.49,4.36c1.8,1.85,3.21,4.06,4.22,6.6,1.01,2.55,1.52,5.34,1.52,8.38s-.51,5.84-1.52,8.4c-1.01,2.57-2.42,4.78-4.22,6.63-1.8,1.85-3.96,3.3-6.49,4.33-2.53,1.03-5.31,1.54-8.35,1.54s-5.81-.51-8.34-1.54c-2.53-1.03-4.69-2.47-6.5-4.33-1.8-1.85-3.2-4.06-4.21-6.63-1.01-2.57-1.52-5.37-1.52-8.4Zm3.71,0c0,2.47,.39,4.78,1.18,6.91,.79,2.14,1.91,3.99,3.37,5.56,1.46,1.57,3.23,2.81,5.31,3.71,2.08,.9,4.41,1.35,7,1.35s4.92-.45,7-1.35c2.08-.9,3.85-2.14,5.31-3.71,1.46-1.57,2.59-3.43,3.38-5.56,.79-2.14,1.18-4.44,1.18-6.91s-.39-4.78-1.18-6.91c-.79-2.14-1.91-3.99-3.38-5.56-1.46-1.57-3.23-2.81-5.31-3.71-2.08-.9-4.41-1.35-7-1.35s-4.92,.45-7,1.35c-2.08,.9-3.85,2.14-5.31,3.71-1.46,1.57-2.58,3.43-3.37,5.56-.79,2.14-1.18,4.44-1.18,6.91Z"/></g></svg>